<mxfile host="app.diagrams.net" modified="2023-09-04T17:14:04.408Z" agent="Mozilla/5.0 (Windows NT 10.0; Win64; x64) AppleWebKit/537.36 (KHTML, like Gecko) Chrome/116.0.0.0 Safari/537.36" etag="A7DiZUncWXk0nIc38N0b" version="21.7.2" type="google">
  <diagram name="Página-1" id="EsK_bGQt8o4xwhUFJefm">
    <mxGraphModel grid="1" page="1" gridSize="10" guides="1" tooltips="1" connect="1" arrows="1" fold="1" pageScale="1" pageWidth="827" pageHeight="1169" math="0" shadow="0">
      <root>
        <mxCell id="0" />
        <mxCell id="1" parent="0" />
        <mxCell id="v5I_mjWgPbfg-8lrrbh--13" style="edgeStyle=orthogonalEdgeStyle;rounded=0;orthogonalLoop=1;jettySize=auto;html=1;entryX=0;entryY=0.5;entryDx=0;entryDy=0;" edge="1" parent="1" source="v5I_mjWgPbfg-8lrrbh--27" target="v5I_mjWgPbfg-8lrrbh--11">
          <mxGeometry relative="1" as="geometry" />
        </mxCell>
        <mxCell id="v5I_mjWgPbfg-8lrrbh--1" value="votante&lt;br&gt;" style="shape=umlActor;verticalLabelPosition=bottom;verticalAlign=top;html=1;outlineConnect=0;" vertex="1" parent="1">
          <mxGeometry x="30" y="360" width="30" height="60" as="geometry" />
        </mxCell>
        <mxCell id="v5I_mjWgPbfg-8lrrbh--6" value="base de datos&lt;br&gt;" style="shape=umlActor;verticalLabelPosition=bottom;verticalAlign=top;html=1;outlineConnect=0;" vertex="1" parent="1">
          <mxGeometry x="760" y="340" width="30" height="60" as="geometry" />
        </mxCell>
        <mxCell id="v5I_mjWgPbfg-8lrrbh--14" style="edgeStyle=orthogonalEdgeStyle;rounded=0;orthogonalLoop=1;jettySize=auto;html=1;entryX=0;entryY=0.5;entryDx=0;entryDy=0;" edge="1" parent="1" source="v5I_mjWgPbfg-8lrrbh--11" target="v5I_mjWgPbfg-8lrrbh--12">
          <mxGeometry relative="1" as="geometry" />
        </mxCell>
        <mxCell id="v5I_mjWgPbfg-8lrrbh--11" value="ingresar voto" style="ellipse;whiteSpace=wrap;html=1;" vertex="1" parent="1">
          <mxGeometry x="340" y="270" width="120" height="80" as="geometry" />
        </mxCell>
        <mxCell id="v5I_mjWgPbfg-8lrrbh--15" style="edgeStyle=orthogonalEdgeStyle;rounded=0;orthogonalLoop=1;jettySize=auto;html=1;" edge="1" parent="1" source="v5I_mjWgPbfg-8lrrbh--12" target="v5I_mjWgPbfg-8lrrbh--6">
          <mxGeometry relative="1" as="geometry" />
        </mxCell>
        <mxCell id="v5I_mjWgPbfg-8lrrbh--12" value="guardar voto" style="ellipse;whiteSpace=wrap;html=1;" vertex="1" parent="1">
          <mxGeometry x="550" y="290" width="120" height="80" as="geometry" />
        </mxCell>
        <mxCell id="v5I_mjWgPbfg-8lrrbh--20" style="edgeStyle=orthogonalEdgeStyle;rounded=0;orthogonalLoop=1;jettySize=auto;html=1;" edge="1" parent="1" source="v5I_mjWgPbfg-8lrrbh--17">
          <mxGeometry relative="1" as="geometry">
            <mxPoint x="50" y="450" as="targetPoint" />
          </mxGeometry>
        </mxCell>
        <mxCell id="v5I_mjWgPbfg-8lrrbh--17" value="dar certificado de votacion" style="ellipse;whiteSpace=wrap;html=1;" vertex="1" parent="1">
          <mxGeometry x="220" y="470" width="120" height="80" as="geometry" />
        </mxCell>
        <mxCell id="v5I_mjWgPbfg-8lrrbh--26" style="edgeStyle=orthogonalEdgeStyle;rounded=0;orthogonalLoop=1;jettySize=auto;html=1;" edge="1" parent="1" source="v5I_mjWgPbfg-8lrrbh--22">
          <mxGeometry relative="1" as="geometry">
            <mxPoint x="780" y="430" as="targetPoint" />
            <Array as="points">
              <mxPoint x="781" y="510" />
            </Array>
          </mxGeometry>
        </mxCell>
        <mxCell id="v5I_mjWgPbfg-8lrrbh--31" style="edgeStyle=orthogonalEdgeStyle;rounded=0;orthogonalLoop=1;jettySize=auto;html=1;" edge="1" parent="1" source="v5I_mjWgPbfg-8lrrbh--22" target="v5I_mjWgPbfg-8lrrbh--23">
          <mxGeometry relative="1" as="geometry">
            <mxPoint x="640" y="650" as="targetPoint" />
            <Array as="points">
              <mxPoint x="650" y="600" />
            </Array>
          </mxGeometry>
        </mxCell>
        <mxCell id="v5I_mjWgPbfg-8lrrbh--32" style="edgeStyle=orthogonalEdgeStyle;rounded=0;orthogonalLoop=1;jettySize=auto;html=1;" edge="1" parent="1" source="v5I_mjWgPbfg-8lrrbh--22" target="v5I_mjWgPbfg-8lrrbh--29">
          <mxGeometry relative="1" as="geometry">
            <Array as="points">
              <mxPoint x="555" y="510" />
              <mxPoint x="555" y="500" />
            </Array>
          </mxGeometry>
        </mxCell>
        <mxCell id="v5I_mjWgPbfg-8lrrbh--22" value="registrar voto en el sistema&amp;nbsp;" style="ellipse;whiteSpace=wrap;html=1;" vertex="1" parent="1">
          <mxGeometry x="580" y="470" width="120" height="80" as="geometry" />
        </mxCell>
        <mxCell id="v5I_mjWgPbfg-8lrrbh--25" style="edgeStyle=orthogonalEdgeStyle;rounded=0;orthogonalLoop=1;jettySize=auto;html=1;" edge="1" parent="1" source="v5I_mjWgPbfg-8lrrbh--23" target="v5I_mjWgPbfg-8lrrbh--17">
          <mxGeometry relative="1" as="geometry" />
        </mxCell>
        <mxCell id="v5I_mjWgPbfg-8lrrbh--23" value="sistema" style="shape=umlActor;verticalLabelPosition=bottom;verticalAlign=top;html=1;outlineConnect=0;" vertex="1" parent="1">
          <mxGeometry x="500" y="570" width="30" height="60" as="geometry" />
        </mxCell>
        <mxCell id="v5I_mjWgPbfg-8lrrbh--28" value="" style="edgeStyle=orthogonalEdgeStyle;rounded=0;orthogonalLoop=1;jettySize=auto;html=1;entryX=0;entryY=0.5;entryDx=0;entryDy=0;" edge="1" parent="1" source="v5I_mjWgPbfg-8lrrbh--1" target="v5I_mjWgPbfg-8lrrbh--27">
          <mxGeometry relative="1" as="geometry">
            <mxPoint x="60" y="390" as="sourcePoint" />
            <mxPoint x="340" y="310" as="targetPoint" />
          </mxGeometry>
        </mxCell>
        <mxCell id="v5I_mjWgPbfg-8lrrbh--27" value="iniciar sesión" style="ellipse;whiteSpace=wrap;html=1;" vertex="1" parent="1">
          <mxGeometry x="150" y="290" width="120" height="80" as="geometry" />
        </mxCell>
        <mxCell id="v5I_mjWgPbfg-8lrrbh--30" style="edgeStyle=orthogonalEdgeStyle;rounded=0;orthogonalLoop=1;jettySize=auto;html=1;entryX=0.25;entryY=0.1;entryDx=0;entryDy=0;entryPerimeter=0;" edge="1" parent="1" source="v5I_mjWgPbfg-8lrrbh--29" target="v5I_mjWgPbfg-8lrrbh--23">
          <mxGeometry relative="1" as="geometry" />
        </mxCell>
        <mxCell id="v5I_mjWgPbfg-8lrrbh--29" value="calcular porcentaje de voto" style="ellipse;whiteSpace=wrap;html=1;" vertex="1" parent="1">
          <mxGeometry x="410" y="450" width="120" height="80" as="geometry" />
        </mxCell>
      </root>
    </mxGraphModel>
  </diagram>
</mxfile>
